<mxfile host="app.diagrams.net" agent="Mozilla/5.0 (Windows NT 10.0; Win64; x64) AppleWebKit/537.36 (KHTML, like Gecko) Chrome/128.0.0.0 Safari/537.36" version="24.7.14">
  <diagram name="Page-1" id="9f46799a-70d6-7492-0946-bef42562c5a5">
    <mxGraphModel dx="2662" dy="1660" grid="1" gridSize="10" guides="1" tooltips="1" connect="1" arrows="1" fold="1" page="1" pageScale="1" pageWidth="1100" pageHeight="850" background="none" math="0" shadow="0">
      <root>
        <mxCell id="0" />
        <mxCell id="1" parent="0" />
        <mxCell id="78961159f06e98e8-17" value="Users" style="swimlane;html=1;fontStyle=1;align=center;verticalAlign=top;childLayout=stackLayout;horizontal=1;startSize=26;horizontalStack=0;resizeParent=1;resizeLast=0;collapsible=1;marginBottom=0;swimlaneFillColor=#ffffff;rounded=0;shadow=0;comic=0;labelBackgroundColor=none;strokeWidth=1;fillColor=none;fontFamily=Verdana;fontSize=12" parent="1" vertex="1">
          <mxGeometry x="100" y="20" width="270" height="518" as="geometry" />
        </mxCell>
        <mxCell id="78961159f06e98e8-24" value="- id: Id" style="text;html=1;strokeColor=none;fillColor=none;align=left;verticalAlign=top;spacingLeft=4;spacingRight=4;whiteSpace=wrap;overflow=hidden;rotatable=0;points=[[0,0.5],[1,0.5]];portConstraint=eastwest;labelBackgroundColor=none;" parent="78961159f06e98e8-17" vertex="1">
          <mxGeometry y="26" width="270" height="26" as="geometry" />
        </mxCell>
        <mxCell id="78961159f06e98e8-21" value="- username: String" style="text;html=1;strokeColor=none;fillColor=none;align=left;verticalAlign=top;spacingLeft=4;spacingRight=4;whiteSpace=wrap;overflow=hidden;rotatable=0;points=[[0,0.5],[1,0.5]];portConstraint=eastwest;labelBackgroundColor=none;" parent="78961159f06e98e8-17" vertex="1">
          <mxGeometry y="52" width="270" height="26" as="geometry" />
        </mxCell>
        <mxCell id="78961159f06e98e8-23" value="- password: String" style="text;html=1;strokeColor=none;fillColor=none;align=left;verticalAlign=top;spacingLeft=4;spacingRight=4;whiteSpace=wrap;overflow=hidden;rotatable=0;points=[[0,0.5],[1,0.5]];portConstraint=eastwest;labelBackgroundColor=none;" parent="78961159f06e98e8-17" vertex="1">
          <mxGeometry y="78" width="270" height="26" as="geometry" />
        </mxCell>
        <mxCell id="78961159f06e98e8-26" value="- email: String" style="text;html=1;strokeColor=none;fillColor=none;align=left;verticalAlign=top;spacingLeft=4;spacingRight=4;whiteSpace=wrap;overflow=hidden;rotatable=0;points=[[0,0.5],[1,0.5]];portConstraint=eastwest;labelBackgroundColor=none;" parent="78961159f06e98e8-17" vertex="1">
          <mxGeometry y="104" width="270" height="26" as="geometry" />
        </mxCell>
        <mxCell id="78961159f06e98e8-25" value="- nickname: String" style="text;html=1;strokeColor=none;fillColor=none;align=left;verticalAlign=top;spacingLeft=4;spacingRight=4;whiteSpace=wrap;overflow=hidden;rotatable=0;points=[[0,0.5],[1,0.5]];portConstraint=eastwest;labelBackgroundColor=none;" parent="78961159f06e98e8-17" vertex="1">
          <mxGeometry y="130" width="270" height="26" as="geometry" />
        </mxCell>
        <mxCell id="Ccfl4KgH0oGbk2hKrYcx-2" value="- tag: Tag[5]" style="text;html=1;strokeColor=none;fillColor=none;align=left;verticalAlign=top;spacingLeft=4;spacingRight=4;whiteSpace=wrap;overflow=hidden;rotatable=0;points=[[0,0.5],[1,0.5]];portConstraint=eastwest;labelBackgroundColor=none;" parent="78961159f06e98e8-17" vertex="1">
          <mxGeometry y="156" width="270" height="26" as="geometry" />
        </mxCell>
        <mxCell id="Ccfl4KgH0oGbk2hKrYcx-3" value="- followingList: ArrayList&amp;lt;Id&amp;gt;&amp;nbsp;" style="text;html=1;strokeColor=none;fillColor=none;align=left;verticalAlign=top;spacingLeft=4;spacingRight=4;whiteSpace=wrap;overflow=hidden;rotatable=0;points=[[0,0.5],[1,0.5]];portConstraint=eastwest;labelBackgroundColor=none;" parent="78961159f06e98e8-17" vertex="1">
          <mxGeometry y="182" width="270" height="26" as="geometry" />
        </mxCell>
        <mxCell id="Ccfl4KgH0oGbk2hKrYcx-4" value="- followers: ArrayList&amp;lt;Id&amp;gt;" style="text;html=1;strokeColor=none;fillColor=none;align=left;verticalAlign=top;spacingLeft=4;spacingRight=4;whiteSpace=wrap;overflow=hidden;rotatable=0;points=[[0,0.5],[1,0.5]];portConstraint=eastwest;labelBackgroundColor=none;" parent="78961159f06e98e8-17" vertex="1">
          <mxGeometry y="208" width="270" height="26" as="geometry" />
        </mxCell>
        <mxCell id="Ccfl4KgH0oGbk2hKrYcx-191" value="- message???" style="text;html=1;strokeColor=none;fillColor=none;align=left;verticalAlign=top;spacingLeft=4;spacingRight=4;whiteSpace=wrap;overflow=hidden;rotatable=0;points=[[0,0.5],[1,0.5]];portConstraint=eastwest;labelBackgroundColor=none;" parent="78961159f06e98e8-17" vertex="1">
          <mxGeometry y="234" width="270" height="26" as="geometry" />
        </mxCell>
        <mxCell id="Ccfl4KgH0oGbk2hKrYcx-5" value="- searchHistory: ArrayList&amp;lt;String&amp;gt;" style="text;html=1;strokeColor=none;fillColor=none;align=left;verticalAlign=top;spacingLeft=4;spacingRight=4;whiteSpace=wrap;overflow=hidden;rotatable=0;points=[[0,0.5],[1,0.5]];portConstraint=eastwest;labelBackgroundColor=none;" parent="78961159f06e98e8-17" vertex="1">
          <mxGeometry y="260" width="270" height="26" as="geometry" />
        </mxCell>
        <mxCell id="Ccfl4KgH0oGbk2hKrYcx-6" value="- browseHistory: ArrayList&amp;lt;Id&amp;gt;" style="text;html=1;strokeColor=none;fillColor=none;align=left;verticalAlign=top;spacingLeft=4;spacingRight=4;whiteSpace=wrap;overflow=hidden;rotatable=0;points=[[0,0.5],[1,0.5]];portConstraint=eastwest;labelBackgroundColor=none;" parent="78961159f06e98e8-17" vertex="1">
          <mxGeometry y="286" width="270" height="26" as="geometry" />
        </mxCell>
        <mxCell id="Ccfl4KgH0oGbk2hKrYcx-7" value="- rateCommentHistory: ArrayList&amp;lt;Id&amp;gt;" style="text;html=1;strokeColor=none;fillColor=none;align=left;verticalAlign=top;spacingLeft=4;spacingRight=4;whiteSpace=wrap;overflow=hidden;rotatable=0;points=[[0,0.5],[1,0.5]];portConstraint=eastwest;labelBackgroundColor=none;" parent="78961159f06e98e8-17" vertex="1">
          <mxGeometry y="312" width="270" height="26" as="geometry" />
        </mxCell>
        <mxCell id="78961159f06e98e8-19" value="" style="line;html=1;strokeWidth=1;fillColor=none;align=left;verticalAlign=middle;spacingTop=-1;spacingLeft=3;spacingRight=3;rotatable=0;labelPosition=right;points=[];portConstraint=eastwest;labelBackgroundColor=none;" parent="78961159f06e98e8-17" vertex="1">
          <mxGeometry y="338" width="270" height="24" as="geometry" />
        </mxCell>
        <mxCell id="78961159f06e98e8-20" value="+ get&amp;lt;Attribute&amp;gt;()" style="text;html=1;strokeColor=none;fillColor=none;align=left;verticalAlign=top;spacingLeft=4;spacingRight=4;whiteSpace=wrap;overflow=hidden;rotatable=0;points=[[0,0.5],[1,0.5]];portConstraint=eastwest;labelBackgroundColor=none;" parent="78961159f06e98e8-17" vertex="1">
          <mxGeometry y="362" width="270" height="26" as="geometry" />
        </mxCell>
        <mxCell id="78961159f06e98e8-27" value="+ set&amp;lt;Attribute&amp;gt;()" style="text;html=1;strokeColor=none;fillColor=none;align=left;verticalAlign=top;spacingLeft=4;spacingRight=4;whiteSpace=wrap;overflow=hidden;rotatable=0;points=[[0,0.5],[1,0.5]];portConstraint=eastwest;labelBackgroundColor=none;" parent="78961159f06e98e8-17" vertex="1">
          <mxGeometry y="388" width="270" height="26" as="geometry" />
        </mxCell>
        <mxCell id="Ccfl4KgH0oGbk2hKrYcx-14" value="+ following()" style="text;html=1;strokeColor=none;fillColor=none;align=left;verticalAlign=top;spacingLeft=4;spacingRight=4;whiteSpace=wrap;overflow=hidden;rotatable=0;points=[[0,0.5],[1,0.5]];portConstraint=eastwest;labelBackgroundColor=none;" parent="78961159f06e98e8-17" vertex="1">
          <mxGeometry y="414" width="270" height="26" as="geometry" />
        </mxCell>
        <mxCell id="Ccfl4KgH0oGbk2hKrYcx-42" value="+ removeFollowing()" style="text;html=1;strokeColor=none;fillColor=none;align=left;verticalAlign=top;spacingLeft=4;spacingRight=4;whiteSpace=wrap;overflow=hidden;rotatable=0;points=[[0,0.5],[1,0.5]];portConstraint=eastwest;labelBackgroundColor=none;" parent="78961159f06e98e8-17" vertex="1">
          <mxGeometry y="440" width="270" height="26" as="geometry" />
        </mxCell>
        <mxCell id="Ccfl4KgH0oGbk2hKrYcx-43" value="+ searchProduct()" style="text;html=1;strokeColor=none;fillColor=none;align=left;verticalAlign=top;spacingLeft=4;spacingRight=4;whiteSpace=wrap;overflow=hidden;rotatable=0;points=[[0,0.5],[1,0.5]];portConstraint=eastwest;labelBackgroundColor=none;" parent="78961159f06e98e8-17" vertex="1">
          <mxGeometry y="466" width="270" height="26" as="geometry" />
        </mxCell>
        <mxCell id="Ccfl4KgH0oGbk2hKrYcx-44" value="+ viewHistory()" style="text;html=1;strokeColor=none;fillColor=none;align=left;verticalAlign=top;spacingLeft=4;spacingRight=4;whiteSpace=wrap;overflow=hidden;rotatable=0;points=[[0,0.5],[1,0.5]];portConstraint=eastwest;labelBackgroundColor=none;" parent="78961159f06e98e8-17" vertex="1">
          <mxGeometry y="492" width="270" height="26" as="geometry" />
        </mxCell>
        <mxCell id="78961159f06e98e8-30" value="Product Profile" style="swimlane;html=1;fontStyle=1;align=center;verticalAlign=top;childLayout=stackLayout;horizontal=1;startSize=26;horizontalStack=0;resizeParent=1;resizeLast=0;collapsible=1;marginBottom=0;swimlaneFillColor=#ffffff;rounded=0;shadow=0;comic=0;labelBackgroundColor=none;strokeWidth=1;fillColor=none;fontFamily=Verdana;fontSize=12" parent="1" vertex="1">
          <mxGeometry x="670" y="408" width="210" height="310" as="geometry" />
        </mxCell>
        <mxCell id="78961159f06e98e8-31" value="- id: Id" style="text;html=1;strokeColor=none;fillColor=none;align=left;verticalAlign=top;spacingLeft=4;spacingRight=4;whiteSpace=wrap;overflow=hidden;rotatable=0;points=[[0,0.5],[1,0.5]];portConstraint=eastwest;labelBackgroundColor=none;" parent="78961159f06e98e8-30" vertex="1">
          <mxGeometry y="26" width="210" height="26" as="geometry" />
        </mxCell>
        <mxCell id="78961159f06e98e8-32" value="- productName: String" style="text;html=1;strokeColor=none;fillColor=none;align=left;verticalAlign=top;spacingLeft=4;spacingRight=4;whiteSpace=wrap;overflow=hidden;rotatable=0;points=[[0,0.5],[1,0.5]];portConstraint=eastwest;labelBackgroundColor=none;" parent="78961159f06e98e8-30" vertex="1">
          <mxGeometry y="52" width="210" height="26" as="geometry" />
        </mxCell>
        <mxCell id="78961159f06e98e8-33" value="- creator: Id" style="text;html=1;strokeColor=none;fillColor=none;align=left;verticalAlign=top;spacingLeft=4;spacingRight=4;whiteSpace=wrap;overflow=hidden;rotatable=0;points=[[0,0.5],[1,0.5]];portConstraint=eastwest;labelBackgroundColor=none;" parent="78961159f06e98e8-30" vertex="1">
          <mxGeometry y="78" width="210" height="26" as="geometry" />
        </mxCell>
        <mxCell id="Ccfl4KgH0oGbk2hKrYcx-41" value="- tag: Tag[5]" style="text;html=1;strokeColor=none;fillColor=none;align=left;verticalAlign=top;spacingLeft=4;spacingRight=4;whiteSpace=wrap;overflow=hidden;rotatable=0;points=[[0,0.5],[1,0.5]];portConstraint=eastwest;labelBackgroundColor=none;" parent="78961159f06e98e8-30" vertex="1">
          <mxGeometry y="104" width="210" height="26" as="geometry" />
        </mxCell>
        <mxCell id="78961159f06e98e8-34" value="- averageScore: rate" style="text;html=1;strokeColor=none;fillColor=none;align=left;verticalAlign=top;spacingLeft=4;spacingRight=4;whiteSpace=wrap;overflow=hidden;rotatable=0;points=[[0,0.5],[1,0.5]];portConstraint=eastwest;labelBackgroundColor=none;" parent="78961159f06e98e8-30" vertex="1">
          <mxGeometry y="130" width="210" height="26" as="geometry" />
        </mxCell>
        <mxCell id="78961159f06e98e8-36" value="- parametorList: parametor[10]" style="text;html=1;strokeColor=none;fillColor=none;align=left;verticalAlign=top;spacingLeft=4;spacingRight=4;whiteSpace=wrap;overflow=hidden;rotatable=0;points=[[0,0.5],[1,0.5]];portConstraint=eastwest;labelBackgroundColor=none;" parent="78961159f06e98e8-30" vertex="1">
          <mxGeometry y="156" width="210" height="26" as="geometry" />
        </mxCell>
        <mxCell id="Ccfl4KgH0oGbk2hKrYcx-161" value="- commentList: ArrayList&amp;lt;Comment&amp;gt;" style="text;html=1;strokeColor=none;fillColor=none;align=left;verticalAlign=top;spacingLeft=4;spacingRight=4;whiteSpace=wrap;overflow=hidden;rotatable=0;points=[[0,0.5],[1,0.5]];portConstraint=eastwest;labelBackgroundColor=none;" parent="78961159f06e98e8-30" vertex="1">
          <mxGeometry y="182" width="210" height="26" as="geometry" />
        </mxCell>
        <mxCell id="78961159f06e98e8-38" value="" style="line;html=1;strokeWidth=1;fillColor=none;align=left;verticalAlign=middle;spacingTop=-1;spacingLeft=3;spacingRight=3;rotatable=0;labelPosition=right;points=[];portConstraint=eastwest;labelBackgroundColor=none;" parent="78961159f06e98e8-30" vertex="1">
          <mxGeometry y="208" width="210" height="24" as="geometry" />
        </mxCell>
        <mxCell id="78961159f06e98e8-39" value="+ get&amp;lt;Attribute&amp;gt;()" style="text;html=1;strokeColor=none;fillColor=none;align=left;verticalAlign=top;spacingLeft=4;spacingRight=4;whiteSpace=wrap;overflow=hidden;rotatable=0;points=[[0,0.5],[1,0.5]];portConstraint=eastwest;labelBackgroundColor=none;" parent="78961159f06e98e8-30" vertex="1">
          <mxGeometry y="232" width="210" height="26" as="geometry" />
        </mxCell>
        <mxCell id="78961159f06e98e8-40" value="+ set&amp;lt;Attribute&amp;gt;()" style="text;html=1;strokeColor=none;fillColor=none;align=left;verticalAlign=top;spacingLeft=4;spacingRight=4;whiteSpace=wrap;overflow=hidden;rotatable=0;points=[[0,0.5],[1,0.5]];portConstraint=eastwest;labelBackgroundColor=none;" parent="78961159f06e98e8-30" vertex="1">
          <mxGeometry y="258" width="210" height="26" as="geometry" />
        </mxCell>
        <mxCell id="78961159f06e98e8-42" value="+ report()" style="text;html=1;strokeColor=none;fillColor=none;align=left;verticalAlign=top;spacingLeft=4;spacingRight=4;whiteSpace=wrap;overflow=hidden;rotatable=0;points=[[0,0.5],[1,0.5]];portConstraint=eastwest;labelBackgroundColor=none;" parent="78961159f06e98e8-30" vertex="1">
          <mxGeometry y="284" width="210" height="26" as="geometry" />
        </mxCell>
        <mxCell id="Ccfl4KgH0oGbk2hKrYcx-11" value="" style="endArrow=none;html=1;endSize=12;startArrow=none;startSize=14;startFill=0;edgeStyle=orthogonalEdgeStyle;rounded=0;fontSize=12;entryX=-0.004;entryY=0.056;entryDx=0;entryDy=0;entryPerimeter=0;endFill=0;labelBackgroundColor=none;fontColor=default;" parent="1" source="Ccfl4KgH0oGbk2hKrYcx-43" target="78961159f06e98e8-30" edge="1">
          <mxGeometry x="0.0006" relative="1" as="geometry">
            <mxPoint x="430" y="430" as="sourcePoint" />
            <mxPoint x="560.16" y="170.02100000000007" as="targetPoint" />
            <mxPoint as="offset" />
          </mxGeometry>
        </mxCell>
        <mxCell id="Ccfl4KgH0oGbk2hKrYcx-12" value="0..*" style="edgeLabel;resizable=0;html=1;align=left;verticalAlign=top;labelBackgroundColor=none;" parent="Ccfl4KgH0oGbk2hKrYcx-11" connectable="0" vertex="1">
          <mxGeometry x="-1" relative="1" as="geometry">
            <mxPoint x="8" y="-25" as="offset" />
          </mxGeometry>
        </mxCell>
        <mxCell id="Ccfl4KgH0oGbk2hKrYcx-198" value="&lt;span style=&quot;font-size: 12px; background-color: rgb(251, 251, 251);&quot;&gt;user view product profiles&lt;/span&gt;" style="edgeLabel;html=1;align=center;verticalAlign=middle;resizable=0;points=[];" parent="Ccfl4KgH0oGbk2hKrYcx-11" vertex="1" connectable="0">
          <mxGeometry x="0.0235" y="-1" relative="1" as="geometry">
            <mxPoint as="offset" />
          </mxGeometry>
        </mxCell>
        <mxCell id="Ccfl4KgH0oGbk2hKrYcx-16" value="Rate" style="swimlane;html=1;fontStyle=1;align=center;verticalAlign=top;childLayout=stackLayout;horizontal=1;startSize=26;horizontalStack=0;resizeParent=1;resizeLast=0;collapsible=1;marginBottom=0;swimlaneFillColor=#ffffff;rounded=0;shadow=0;comic=0;labelBackgroundColor=none;strokeWidth=1;fillColor=none;fontFamily=Verdana;fontSize=12" parent="1" vertex="1">
          <mxGeometry x="1260" y="140" width="180" height="210" as="geometry" />
        </mxCell>
        <mxCell id="Ccfl4KgH0oGbk2hKrYcx-17" value="- average: double" style="text;html=1;strokeColor=none;fillColor=none;align=left;verticalAlign=top;spacingLeft=4;spacingRight=4;whiteSpace=wrap;overflow=hidden;rotatable=0;points=[[0,0.5],[1,0.5]];portConstraint=eastwest;labelBackgroundColor=none;" parent="Ccfl4KgH0oGbk2hKrYcx-16" vertex="1">
          <mxGeometry y="26" width="180" height="26" as="geometry" />
        </mxCell>
        <mxCell id="Ccfl4KgH0oGbk2hKrYcx-19" value="- scoreList: Map&amp;lt;Id, double&amp;gt;" style="text;html=1;strokeColor=none;fillColor=none;align=left;verticalAlign=top;spacingLeft=4;spacingRight=4;whiteSpace=wrap;overflow=hidden;rotatable=0;points=[[0,0.5],[1,0.5]];portConstraint=eastwest;labelBackgroundColor=none;" parent="Ccfl4KgH0oGbk2hKrYcx-16" vertex="1">
          <mxGeometry y="52" width="180" height="26" as="geometry" />
        </mxCell>
        <mxCell id="Ccfl4KgH0oGbk2hKrYcx-20" value="- totalScore: double" style="text;html=1;strokeColor=none;fillColor=none;align=left;verticalAlign=top;spacingLeft=4;spacingRight=4;whiteSpace=wrap;overflow=hidden;rotatable=0;points=[[0,0.5],[1,0.5]];portConstraint=eastwest;labelBackgroundColor=none;" parent="Ccfl4KgH0oGbk2hKrYcx-16" vertex="1">
          <mxGeometry y="78" width="180" height="26" as="geometry" />
        </mxCell>
        <mxCell id="Ccfl4KgH0oGbk2hKrYcx-21" value="- totalRater: int" style="text;html=1;strokeColor=none;fillColor=none;align=left;verticalAlign=top;spacingLeft=4;spacingRight=4;whiteSpace=wrap;overflow=hidden;rotatable=0;points=[[0,0.5],[1,0.5]];portConstraint=eastwest;labelBackgroundColor=none;" parent="Ccfl4KgH0oGbk2hKrYcx-16" vertex="1">
          <mxGeometry y="104" width="180" height="26" as="geometry" />
        </mxCell>
        <mxCell id="Ccfl4KgH0oGbk2hKrYcx-23" value="" style="line;html=1;strokeWidth=1;fillColor=none;align=left;verticalAlign=middle;spacingTop=-1;spacingLeft=3;spacingRight=3;rotatable=0;labelPosition=right;points=[];portConstraint=eastwest;labelBackgroundColor=none;" parent="Ccfl4KgH0oGbk2hKrYcx-16" vertex="1">
          <mxGeometry y="130" width="180" height="24" as="geometry" />
        </mxCell>
        <mxCell id="Ccfl4KgH0oGbk2hKrYcx-24" value="+ get&amp;lt;Attribute&amp;gt;()" style="text;html=1;strokeColor=none;fillColor=none;align=left;verticalAlign=top;spacingLeft=4;spacingRight=4;whiteSpace=wrap;overflow=hidden;rotatable=0;points=[[0,0.5],[1,0.5]];portConstraint=eastwest;labelBackgroundColor=none;" parent="Ccfl4KgH0oGbk2hKrYcx-16" vertex="1">
          <mxGeometry y="154" width="180" height="26" as="geometry" />
        </mxCell>
        <mxCell id="Ccfl4KgH0oGbk2hKrYcx-25" value="+ set&amp;lt;Attribute&amp;gt;()" style="text;html=1;strokeColor=none;fillColor=none;align=left;verticalAlign=top;spacingLeft=4;spacingRight=4;whiteSpace=wrap;overflow=hidden;rotatable=0;points=[[0,0.5],[1,0.5]];portConstraint=eastwest;labelBackgroundColor=none;" parent="Ccfl4KgH0oGbk2hKrYcx-16" vertex="1">
          <mxGeometry y="180" width="180" height="26" as="geometry" />
        </mxCell>
        <mxCell id="Ccfl4KgH0oGbk2hKrYcx-27" value="" style="endArrow=block;endFill=1;html=1;edgeStyle=elbowEdgeStyle;align=left;verticalAlign=top;rounded=0;fontSize=12;startSize=8;endSize=8;entryX=-0.003;entryY=0.049;entryDx=0;entryDy=0;entryPerimeter=0;labelBackgroundColor=none;fontColor=default;" parent="1" source="78961159f06e98e8-36" target="Ccfl4KgH0oGbk2hKrYcx-30" edge="1">
          <mxGeometry x="-1" relative="1" as="geometry">
            <mxPoint x="860" y="571.71" as="sourcePoint" />
            <mxPoint x="960" y="660" as="targetPoint" />
            <mxPoint as="offset" />
          </mxGeometry>
        </mxCell>
        <mxCell id="Ccfl4KgH0oGbk2hKrYcx-30" value="Parametor" style="swimlane;html=1;fontStyle=1;align=center;verticalAlign=top;childLayout=stackLayout;horizontal=1;startSize=26;horizontalStack=0;resizeParent=1;resizeLast=0;collapsible=1;marginBottom=0;swimlaneFillColor=#ffffff;rounded=0;shadow=0;comic=0;labelBackgroundColor=none;strokeWidth=1;fillColor=none;fontFamily=Verdana;fontSize=12" parent="1" vertex="1">
          <mxGeometry x="1030" y="280" width="160" height="206" as="geometry" />
        </mxCell>
        <mxCell id="Ccfl4KgH0oGbk2hKrYcx-31" value="- parametorName: String" style="text;html=1;strokeColor=none;fillColor=none;align=left;verticalAlign=top;spacingLeft=4;spacingRight=4;whiteSpace=wrap;overflow=hidden;rotatable=0;points=[[0,0.5],[1,0.5]];portConstraint=eastwest;labelBackgroundColor=none;" parent="Ccfl4KgH0oGbk2hKrYcx-30" vertex="1">
          <mxGeometry y="26" width="160" height="26" as="geometry" />
        </mxCell>
        <mxCell id="Ccfl4KgH0oGbk2hKrYcx-33" value="- creator: username" style="text;html=1;strokeColor=none;fillColor=none;align=left;verticalAlign=top;spacingLeft=4;spacingRight=4;whiteSpace=wrap;overflow=hidden;rotatable=0;points=[[0,0.5],[1,0.5]];portConstraint=eastwest;labelBackgroundColor=none;" parent="Ccfl4KgH0oGbk2hKrYcx-30" vertex="1">
          <mxGeometry y="52" width="160" height="26" as="geometry" />
        </mxCell>
        <mxCell id="Ccfl4KgH0oGbk2hKrYcx-34" value="- averageScore: rate" style="text;html=1;strokeColor=none;fillColor=none;align=left;verticalAlign=top;spacingLeft=4;spacingRight=4;whiteSpace=wrap;overflow=hidden;rotatable=0;points=[[0,0.5],[1,0.5]];portConstraint=eastwest;labelBackgroundColor=none;" parent="Ccfl4KgH0oGbk2hKrYcx-30" vertex="1">
          <mxGeometry y="78" width="160" height="26" as="geometry" />
        </mxCell>
        <mxCell id="Ccfl4KgH0oGbk2hKrYcx-37" value="" style="line;html=1;strokeWidth=1;fillColor=none;align=left;verticalAlign=middle;spacingTop=-1;spacingLeft=3;spacingRight=3;rotatable=0;labelPosition=right;points=[];portConstraint=eastwest;labelBackgroundColor=none;" parent="Ccfl4KgH0oGbk2hKrYcx-30" vertex="1">
          <mxGeometry y="104" width="160" height="24" as="geometry" />
        </mxCell>
        <mxCell id="Ccfl4KgH0oGbk2hKrYcx-38" value="+ get&amp;lt;Attribute&amp;gt;()" style="text;html=1;strokeColor=none;fillColor=none;align=left;verticalAlign=top;spacingLeft=4;spacingRight=4;whiteSpace=wrap;overflow=hidden;rotatable=0;points=[[0,0.5],[1,0.5]];portConstraint=eastwest;labelBackgroundColor=none;" parent="Ccfl4KgH0oGbk2hKrYcx-30" vertex="1">
          <mxGeometry y="128" width="160" height="26" as="geometry" />
        </mxCell>
        <mxCell id="Ccfl4KgH0oGbk2hKrYcx-39" value="+ set&amp;lt;Attribute&amp;gt;()" style="text;html=1;strokeColor=none;fillColor=none;align=left;verticalAlign=top;spacingLeft=4;spacingRight=4;whiteSpace=wrap;overflow=hidden;rotatable=0;points=[[0,0.5],[1,0.5]];portConstraint=eastwest;labelBackgroundColor=none;" parent="Ccfl4KgH0oGbk2hKrYcx-30" vertex="1">
          <mxGeometry y="154" width="160" height="26" as="geometry" />
        </mxCell>
        <mxCell id="Ccfl4KgH0oGbk2hKrYcx-40" value="+ report()" style="text;html=1;strokeColor=none;fillColor=none;align=left;verticalAlign=top;spacingLeft=4;spacingRight=4;whiteSpace=wrap;overflow=hidden;rotatable=0;points=[[0,0.5],[1,0.5]];portConstraint=eastwest;labelBackgroundColor=none;" parent="Ccfl4KgH0oGbk2hKrYcx-30" vertex="1">
          <mxGeometry y="180" width="160" height="26" as="geometry" />
        </mxCell>
        <mxCell id="Ccfl4KgH0oGbk2hKrYcx-47" value="" style="endArrow=none;endFill=0;html=1;align=left;verticalAlign=top;rounded=0;fontSize=12;startSize=8;endSize=8;edgeStyle=elbowEdgeStyle;elbow=vertical;labelBackgroundColor=none;fontColor=default;" parent="1" source="Ccfl4KgH0oGbk2hKrYcx-2" target="Ccfl4KgH0oGbk2hKrYcx-50" edge="1">
          <mxGeometry x="-1" relative="1" as="geometry">
            <mxPoint x="30" y="190" as="sourcePoint" />
            <mxPoint x="-140" y="760" as="targetPoint" />
            <Array as="points">
              <mxPoint x="10" y="450" />
            </Array>
          </mxGeometry>
        </mxCell>
        <mxCell id="Ccfl4KgH0oGbk2hKrYcx-48" value="1" style="edgeLabel;resizable=0;html=1;align=left;verticalAlign=bottom;labelBackgroundColor=none;" parent="Ccfl4KgH0oGbk2hKrYcx-47" connectable="0" vertex="1">
          <mxGeometry x="-1" relative="1" as="geometry">
            <mxPoint x="-15" y="-2" as="offset" />
          </mxGeometry>
        </mxCell>
        <mxCell id="Ccfl4KgH0oGbk2hKrYcx-196" value="&lt;span style=&quot;font-size: 12px; background-color: rgb(251, 251, 251);&quot;&gt;User selects tag from library&lt;/span&gt;" style="edgeLabel;html=1;align=center;verticalAlign=middle;resizable=0;points=[];" parent="Ccfl4KgH0oGbk2hKrYcx-47" vertex="1" connectable="0">
          <mxGeometry x="-0.1821" y="-1" relative="1" as="geometry">
            <mxPoint y="101" as="offset" />
          </mxGeometry>
        </mxCell>
        <mxCell id="Ccfl4KgH0oGbk2hKrYcx-49" value="0..*" style="edgeLabel;resizable=0;html=1;align=left;verticalAlign=bottom;labelBackgroundColor=none;" parent="1" connectable="0" vertex="1">
          <mxGeometry x="120.99999999999983" y="670.002" as="geometry" />
        </mxCell>
        <mxCell id="Ccfl4KgH0oGbk2hKrYcx-50" value="Tag" style="swimlane;html=1;fontStyle=1;align=center;verticalAlign=top;childLayout=stackLayout;horizontal=1;startSize=26;horizontalStack=0;resizeParent=1;resizeLast=0;collapsible=1;marginBottom=0;swimlaneFillColor=#ffffff;rounded=0;shadow=0;comic=0;labelBackgroundColor=none;strokeWidth=1;fillColor=none;fontFamily=Verdana;fontSize=12" parent="1" vertex="1">
          <mxGeometry x="145" y="606" width="180" height="130" as="geometry" />
        </mxCell>
        <mxCell id="Ccfl4KgH0oGbk2hKrYcx-51" value="- tagId: int" style="text;html=1;strokeColor=none;fillColor=none;align=left;verticalAlign=top;spacingLeft=4;spacingRight=4;whiteSpace=wrap;overflow=hidden;rotatable=0;points=[[0,0.5],[1,0.5]];portConstraint=eastwest;labelBackgroundColor=none;" parent="Ccfl4KgH0oGbk2hKrYcx-50" vertex="1">
          <mxGeometry y="26" width="180" height="26" as="geometry" />
        </mxCell>
        <mxCell id="Ccfl4KgH0oGbk2hKrYcx-54" value="- tagName: String" style="text;html=1;strokeColor=none;fillColor=none;align=left;verticalAlign=top;spacingLeft=4;spacingRight=4;whiteSpace=wrap;overflow=hidden;rotatable=0;points=[[0,0.5],[1,0.5]];portConstraint=eastwest;labelBackgroundColor=none;" parent="Ccfl4KgH0oGbk2hKrYcx-50" vertex="1">
          <mxGeometry y="52" width="180" height="26" as="geometry" />
        </mxCell>
        <mxCell id="Ccfl4KgH0oGbk2hKrYcx-57" value="" style="line;html=1;strokeWidth=1;fillColor=none;align=left;verticalAlign=middle;spacingTop=-1;spacingLeft=3;spacingRight=3;rotatable=0;labelPosition=right;points=[];portConstraint=eastwest;labelBackgroundColor=none;" parent="Ccfl4KgH0oGbk2hKrYcx-50" vertex="1">
          <mxGeometry y="78" width="180" height="24" as="geometry" />
        </mxCell>
        <mxCell id="Ccfl4KgH0oGbk2hKrYcx-58" value="+ get&amp;lt;Attribute&amp;gt;()" style="text;html=1;strokeColor=none;fillColor=none;align=left;verticalAlign=top;spacingLeft=4;spacingRight=4;whiteSpace=wrap;overflow=hidden;rotatable=0;points=[[0,0.5],[1,0.5]];portConstraint=eastwest;labelBackgroundColor=none;" parent="Ccfl4KgH0oGbk2hKrYcx-50" vertex="1">
          <mxGeometry y="102" width="180" height="26" as="geometry" />
        </mxCell>
        <mxCell id="Ccfl4KgH0oGbk2hKrYcx-61" value="Id" style="swimlane;html=1;fontStyle=1;align=center;verticalAlign=top;childLayout=stackLayout;horizontal=1;startSize=26;horizontalStack=0;resizeParent=1;resizeLast=0;collapsible=1;marginBottom=0;swimlaneFillColor=#ffffff;rounded=0;shadow=0;comic=0;labelBackgroundColor=none;strokeWidth=1;fillColor=none;fontFamily=Verdana;fontSize=12" parent="1" vertex="1">
          <mxGeometry x="-440" y="-70" width="180" height="180" as="geometry" />
        </mxCell>
        <mxCell id="Ccfl4KgH0oGbk2hKrYcx-62" value="- idNum: String" style="text;html=1;strokeColor=none;fillColor=none;align=left;verticalAlign=top;spacingLeft=4;spacingRight=4;whiteSpace=wrap;overflow=hidden;rotatable=0;points=[[0,0.5],[1,0.5]];portConstraint=eastwest;labelBackgroundColor=none;" parent="Ccfl4KgH0oGbk2hKrYcx-61" vertex="1">
          <mxGeometry y="26" width="180" height="26" as="geometry" />
        </mxCell>
        <mxCell id="Ccfl4KgH0oGbk2hKrYcx-68" value="- name: String" style="text;html=1;strokeColor=none;fillColor=none;align=left;verticalAlign=top;spacingLeft=4;spacingRight=4;whiteSpace=wrap;overflow=hidden;rotatable=0;points=[[0,0.5],[1,0.5]];portConstraint=eastwest;labelBackgroundColor=none;" parent="Ccfl4KgH0oGbk2hKrYcx-61" vertex="1">
          <mxGeometry y="52" width="180" height="26" as="geometry" />
        </mxCell>
        <mxCell id="Ccfl4KgH0oGbk2hKrYcx-64" value="" style="line;html=1;strokeWidth=1;fillColor=none;align=left;verticalAlign=middle;spacingTop=-1;spacingLeft=3;spacingRight=3;rotatable=0;labelPosition=right;points=[];portConstraint=eastwest;labelBackgroundColor=none;" parent="Ccfl4KgH0oGbk2hKrYcx-61" vertex="1">
          <mxGeometry y="78" width="180" height="24" as="geometry" />
        </mxCell>
        <mxCell id="Ccfl4KgH0oGbk2hKrYcx-65" value="+ generateId()" style="text;html=1;strokeColor=none;fillColor=none;align=left;verticalAlign=top;spacingLeft=4;spacingRight=4;whiteSpace=wrap;overflow=hidden;rotatable=0;points=[[0,0.5],[1,0.5]];portConstraint=eastwest;labelBackgroundColor=none;" parent="Ccfl4KgH0oGbk2hKrYcx-61" vertex="1">
          <mxGeometry y="102" width="180" height="26" as="geometry" />
        </mxCell>
        <mxCell id="Ccfl4KgH0oGbk2hKrYcx-67" value="+ findIdObject()" style="text;html=1;strokeColor=none;fillColor=none;align=left;verticalAlign=top;spacingLeft=4;spacingRight=4;whiteSpace=wrap;overflow=hidden;rotatable=0;points=[[0,0.5],[1,0.5]];portConstraint=eastwest;labelBackgroundColor=none;" parent="Ccfl4KgH0oGbk2hKrYcx-61" vertex="1">
          <mxGeometry y="128" width="180" height="26" as="geometry" />
        </mxCell>
        <mxCell id="Ccfl4KgH0oGbk2hKrYcx-66" value="+ addToIdFreeList()" style="text;html=1;strokeColor=none;fillColor=none;align=left;verticalAlign=top;spacingLeft=4;spacingRight=4;whiteSpace=wrap;overflow=hidden;rotatable=0;points=[[0,0.5],[1,0.5]];portConstraint=eastwest;labelBackgroundColor=none;" parent="Ccfl4KgH0oGbk2hKrYcx-61" vertex="1">
          <mxGeometry y="154" width="180" height="26" as="geometry" />
        </mxCell>
        <mxCell id="Ccfl4KgH0oGbk2hKrYcx-75" value="" style="endArrow=none;endFill=0;html=1;edgeStyle=elbowEdgeStyle;align=left;verticalAlign=top;rounded=0;fontSize=12;startSize=8;endSize=8;startArrow=none;startFill=0;labelBackgroundColor=none;fontColor=default;" parent="1" source="Ccfl4KgH0oGbk2hKrYcx-50" target="Ccfl4KgH0oGbk2hKrYcx-41" edge="1">
          <mxGeometry x="-0.776" y="-59" relative="1" as="geometry">
            <mxPoint x="369.99999999999994" y="676.1800000000001" as="sourcePoint" />
            <mxPoint x="616.94" y="560" as="targetPoint" />
            <mxPoint as="offset" />
          </mxGeometry>
        </mxCell>
        <mxCell id="Ccfl4KgH0oGbk2hKrYcx-76" value="1" style="edgeLabel;resizable=0;html=1;align=left;verticalAlign=bottom;labelBackgroundColor=none;" parent="Ccfl4KgH0oGbk2hKrYcx-75" connectable="0" vertex="1">
          <mxGeometry x="-1" relative="1" as="geometry">
            <mxPoint x="327" y="-149" as="offset" />
          </mxGeometry>
        </mxCell>
        <mxCell id="Ccfl4KgH0oGbk2hKrYcx-197" value="&lt;span style=&quot;font-size: 12px; background-color: rgb(251, 251, 251);&quot;&gt;User selects tag from library&lt;/span&gt;" style="edgeLabel;html=1;align=center;verticalAlign=middle;resizable=0;points=[];" parent="Ccfl4KgH0oGbk2hKrYcx-75" vertex="1" connectable="0">
          <mxGeometry x="0.0465" y="-1" relative="1" as="geometry">
            <mxPoint as="offset" />
          </mxGeometry>
        </mxCell>
        <mxCell id="Ccfl4KgH0oGbk2hKrYcx-78" value="0..*" style="edgeLabel;resizable=0;html=1;align=left;verticalAlign=bottom;labelBackgroundColor=none;" parent="1" connectable="0" vertex="1">
          <mxGeometry x="329.99999999999983" y="670.002" as="geometry" />
        </mxCell>
        <mxCell id="Ccfl4KgH0oGbk2hKrYcx-79" value="Head Adam" style="swimlane;html=1;fontStyle=1;align=center;verticalAlign=top;childLayout=stackLayout;horizontal=1;startSize=26;horizontalStack=0;resizeParent=1;resizeLast=0;collapsible=1;marginBottom=0;swimlaneFillColor=#ffffff;rounded=0;shadow=0;comic=0;labelBackgroundColor=none;strokeWidth=1;fillColor=none;fontFamily=Verdana;fontSize=12" parent="1" vertex="1">
          <mxGeometry x="990" y="-80" width="180" height="180" as="geometry" />
        </mxCell>
        <mxCell id="Ccfl4KgH0oGbk2hKrYcx-80" value="- username: String" style="text;html=1;strokeColor=none;fillColor=none;align=left;verticalAlign=top;spacingLeft=4;spacingRight=4;whiteSpace=wrap;overflow=hidden;rotatable=0;points=[[0,0.5],[1,0.5]];portConstraint=eastwest;labelBackgroundColor=none;" parent="Ccfl4KgH0oGbk2hKrYcx-79" vertex="1">
          <mxGeometry y="26" width="180" height="26" as="geometry" />
        </mxCell>
        <mxCell id="Ccfl4KgH0oGbk2hKrYcx-81" value="- password: String" style="text;html=1;strokeColor=none;fillColor=none;align=left;verticalAlign=top;spacingLeft=4;spacingRight=4;whiteSpace=wrap;overflow=hidden;rotatable=0;points=[[0,0.5],[1,0.5]];portConstraint=eastwest;labelBackgroundColor=none;" parent="Ccfl4KgH0oGbk2hKrYcx-79" vertex="1">
          <mxGeometry y="52" width="180" height="26" as="geometry" />
        </mxCell>
        <mxCell id="Ccfl4KgH0oGbk2hKrYcx-82" value="" style="line;html=1;strokeWidth=1;fillColor=none;align=left;verticalAlign=middle;spacingTop=-1;spacingLeft=3;spacingRight=3;rotatable=0;labelPosition=right;points=[];portConstraint=eastwest;labelBackgroundColor=none;" parent="Ccfl4KgH0oGbk2hKrYcx-79" vertex="1">
          <mxGeometry y="78" width="180" height="24" as="geometry" />
        </mxCell>
        <mxCell id="Ccfl4KgH0oGbk2hKrYcx-83" value="+ createAdamAccount()" style="text;html=1;strokeColor=none;fillColor=none;align=left;verticalAlign=top;spacingLeft=4;spacingRight=4;whiteSpace=wrap;overflow=hidden;rotatable=0;points=[[0,0.5],[1,0.5]];portConstraint=eastwest;labelBackgroundColor=none;" parent="Ccfl4KgH0oGbk2hKrYcx-79" vertex="1">
          <mxGeometry y="102" width="180" height="26" as="geometry" />
        </mxCell>
        <mxCell id="Ccfl4KgH0oGbk2hKrYcx-100" value="+ searchAdamAccount()" style="text;html=1;strokeColor=none;fillColor=none;align=left;verticalAlign=top;spacingLeft=4;spacingRight=4;whiteSpace=wrap;overflow=hidden;rotatable=0;points=[[0,0.5],[1,0.5]];portConstraint=eastwest;labelBackgroundColor=none;" parent="Ccfl4KgH0oGbk2hKrYcx-79" vertex="1">
          <mxGeometry y="128" width="180" height="26" as="geometry" />
        </mxCell>
        <mxCell id="Ccfl4KgH0oGbk2hKrYcx-84" value="+ deleteAdamAccount()" style="text;html=1;strokeColor=none;fillColor=none;align=left;verticalAlign=top;spacingLeft=4;spacingRight=4;whiteSpace=wrap;overflow=hidden;rotatable=0;points=[[0,0.5],[1,0.5]];portConstraint=eastwest;labelBackgroundColor=none;" parent="Ccfl4KgH0oGbk2hKrYcx-79" vertex="1">
          <mxGeometry y="154" width="180" height="26" as="geometry" />
        </mxCell>
        <mxCell id="Ccfl4KgH0oGbk2hKrYcx-93" value="1" style="edgeLabel;resizable=0;html=1;align=left;verticalAlign=top;labelBackgroundColor=none;" parent="1" connectable="0" vertex="1">
          <mxGeometry x="647" y="402" as="geometry" />
        </mxCell>
        <mxCell id="Ccfl4KgH0oGbk2hKrYcx-94" value="Adam" style="swimlane;html=1;fontStyle=1;align=center;verticalAlign=top;childLayout=stackLayout;horizontal=1;startSize=26;horizontalStack=0;resizeParent=1;resizeLast=0;collapsible=1;marginBottom=0;swimlaneFillColor=#ffffff;rounded=0;shadow=0;comic=0;labelBackgroundColor=none;strokeWidth=1;fillColor=none;fontFamily=Verdana;fontSize=12" parent="1" vertex="1">
          <mxGeometry x="685" y="80" width="180" height="80" as="geometry" />
        </mxCell>
        <mxCell id="Ccfl4KgH0oGbk2hKrYcx-95" value="- username: String" style="text;html=1;strokeColor=none;fillColor=none;align=left;verticalAlign=top;spacingLeft=4;spacingRight=4;whiteSpace=wrap;overflow=hidden;rotatable=0;points=[[0,0.5],[1,0.5]];portConstraint=eastwest;labelBackgroundColor=none;" parent="Ccfl4KgH0oGbk2hKrYcx-94" vertex="1">
          <mxGeometry y="26" width="180" height="26" as="geometry" />
        </mxCell>
        <mxCell id="Ccfl4KgH0oGbk2hKrYcx-96" value="- password: String" style="text;html=1;strokeColor=none;fillColor=none;align=left;verticalAlign=top;spacingLeft=4;spacingRight=4;whiteSpace=wrap;overflow=hidden;rotatable=0;points=[[0,0.5],[1,0.5]];portConstraint=eastwest;labelBackgroundColor=none;" parent="Ccfl4KgH0oGbk2hKrYcx-94" vertex="1">
          <mxGeometry y="52" width="180" height="26" as="geometry" />
        </mxCell>
        <mxCell id="Ccfl4KgH0oGbk2hKrYcx-101" value="" style="endArrow=block;endFill=1;html=1;edgeStyle=orthogonalEdgeStyle;align=left;verticalAlign=top;rounded=0;fontSize=12;startSize=8;endSize=8;entryX=0.5;entryY=0;entryDx=0;entryDy=0;labelBackgroundColor=none;fontColor=default;" parent="1" source="Ccfl4KgH0oGbk2hKrYcx-79" target="Ccfl4KgH0oGbk2hKrYcx-94" edge="1">
          <mxGeometry x="-0.6372" y="-114" relative="1" as="geometry">
            <mxPoint x="440" y="-270" as="sourcePoint" />
            <mxPoint x="600" y="-270" as="targetPoint" />
            <mxPoint as="offset" />
          </mxGeometry>
        </mxCell>
        <mxCell id="Ccfl4KgH0oGbk2hKrYcx-102" value="1" style="edgeLabel;resizable=0;html=1;align=left;verticalAlign=bottom;labelBackgroundColor=none;" parent="Ccfl4KgH0oGbk2hKrYcx-101" connectable="0" vertex="1">
          <mxGeometry x="-1" relative="1" as="geometry">
            <mxPoint x="-40" as="offset" />
          </mxGeometry>
        </mxCell>
        <mxCell id="Ccfl4KgH0oGbk2hKrYcx-108" value="1..*" style="edgeLabel;resizable=0;html=1;align=left;verticalAlign=bottom;labelBackgroundColor=none;" parent="1" connectable="0" vertex="1">
          <mxGeometry x="778" y="68" as="geometry" />
        </mxCell>
        <mxCell id="Ccfl4KgH0oGbk2hKrYcx-109" value="" style="endArrow=block;endFill=1;html=1;edgeStyle=orthogonalEdgeStyle;align=left;verticalAlign=top;rounded=0;fontSize=12;startSize=8;endSize=8;exitX=1;exitY=0.026;exitDx=0;exitDy=0;exitPerimeter=0;entryX=0;entryY=0.25;entryDx=0;entryDy=0;labelBackgroundColor=none;fontColor=default;" parent="1" source="78961159f06e98e8-17" target="Ccfl4KgH0oGbk2hKrYcx-94" edge="1">
          <mxGeometry x="-1" relative="1" as="geometry">
            <mxPoint x="450" y="60" as="sourcePoint" />
            <mxPoint x="610" y="60" as="targetPoint" />
          </mxGeometry>
        </mxCell>
        <mxCell id="Ccfl4KgH0oGbk2hKrYcx-199" value="&lt;span style=&quot;font-size: 12px; background-color: rgb(251, 251, 251);&quot;&gt;User create product profiles&lt;/span&gt;" style="edgeLabel;html=1;align=center;verticalAlign=middle;resizable=0;points=[];" parent="Ccfl4KgH0oGbk2hKrYcx-109" vertex="1" connectable="0">
          <mxGeometry x="-0.0066" y="-1" relative="1" as="geometry">
            <mxPoint as="offset" />
          </mxGeometry>
        </mxCell>
        <mxCell id="Ccfl4KgH0oGbk2hKrYcx-112" value="" style="endArrow=block;endFill=1;html=1;edgeStyle=orthogonalEdgeStyle;align=left;verticalAlign=top;rounded=0;fontSize=12;startSize=8;endSize=8;elbow=vertical;entryX=0.25;entryY=0;entryDx=0;entryDy=0;labelBackgroundColor=none;fontColor=default;" parent="1" source="Ccfl4KgH0oGbk2hKrYcx-94" target="Ccfl4KgH0oGbk2hKrYcx-121" edge="1">
          <mxGeometry x="-1" relative="1" as="geometry">
            <mxPoint x="618.7600000000002" y="129.998" as="sourcePoint" />
            <mxPoint x="482" y="168.2" as="targetPoint" />
          </mxGeometry>
        </mxCell>
        <mxCell id="Ccfl4KgH0oGbk2hKrYcx-200" value="&lt;span style=&quot;font-size: 12px; background-color: rgb(251, 251, 251);&quot;&gt;Adam deny&lt;/span&gt;" style="edgeLabel;html=1;align=center;verticalAlign=middle;resizable=0;points=[];" parent="Ccfl4KgH0oGbk2hKrYcx-112" vertex="1" connectable="0">
          <mxGeometry x="-0.1344" y="-1" relative="1" as="geometry">
            <mxPoint as="offset" />
          </mxGeometry>
        </mxCell>
        <mxCell id="Ccfl4KgH0oGbk2hKrYcx-115" value="" style="endArrow=block;endFill=1;html=1;edgeStyle=orthogonalEdgeStyle;align=left;verticalAlign=top;rounded=0;fontSize=12;startSize=8;endSize=8;labelBackgroundColor=none;fontColor=default;" parent="1" source="Ccfl4KgH0oGbk2hKrYcx-94" target="78961159f06e98e8-30" edge="1">
          <mxGeometry x="-1" relative="1" as="geometry">
            <mxPoint x="805" y="160" as="sourcePoint" />
            <mxPoint x="1020" y="280" as="targetPoint" />
          </mxGeometry>
        </mxCell>
        <mxCell id="Ccfl4KgH0oGbk2hKrYcx-203" value="&lt;span style=&quot;font-size: 12px; background-color: rgb(251, 251, 251);&quot;&gt;Adam approve&lt;/span&gt;" style="edgeLabel;html=1;align=center;verticalAlign=middle;resizable=0;points=[];" parent="Ccfl4KgH0oGbk2hKrYcx-115" vertex="1" connectable="0">
          <mxGeometry x="-0.1494" y="-2" relative="1" as="geometry">
            <mxPoint x="2" y="13" as="offset" />
          </mxGeometry>
        </mxCell>
        <mxCell id="Ccfl4KgH0oGbk2hKrYcx-119" value="" style="endArrow=block;endFill=1;html=1;edgeStyle=orthogonalEdgeStyle;align=left;verticalAlign=top;rounded=0;fontSize=12;startSize=8;endSize=8;labelBackgroundColor=none;fontColor=default;" parent="1" source="78961159f06e98e8-17" target="Ccfl4KgH0oGbk2hKrYcx-121" edge="1">
          <mxGeometry x="-1" relative="1" as="geometry">
            <mxPoint x="420" y="240" as="sourcePoint" />
            <mxPoint x="580" y="240" as="targetPoint" />
          </mxGeometry>
        </mxCell>
        <mxCell id="Ccfl4KgH0oGbk2hKrYcx-121" value="Notification" style="swimlane;html=1;fontStyle=1;align=center;verticalAlign=top;childLayout=stackLayout;horizontal=1;startSize=26;horizontalStack=0;resizeParent=1;resizeLast=0;collapsible=1;marginBottom=0;swimlaneFillColor=#ffffff;rounded=0;shadow=0;comic=0;labelBackgroundColor=none;strokeWidth=1;fillColor=none;fontFamily=Verdana;fontSize=12" parent="1" vertex="1">
          <mxGeometry x="420" y="214" width="180" height="130" as="geometry" />
        </mxCell>
        <mxCell id="Ccfl4KgH0oGbk2hKrYcx-127" value="- AditNotification" style="text;html=1;strokeColor=none;fillColor=none;align=left;verticalAlign=top;spacingLeft=4;spacingRight=4;whiteSpace=wrap;overflow=hidden;rotatable=0;points=[[0,0.5],[1,0.5]];portConstraint=eastwest;labelBackgroundColor=none;" parent="Ccfl4KgH0oGbk2hKrYcx-121" vertex="1">
          <mxGeometry y="26" width="180" height="26" as="geometry" />
        </mxCell>
        <mxCell id="Ccfl4KgH0oGbk2hKrYcx-128" value="- messageNotification" style="text;html=1;strokeColor=none;fillColor=none;align=left;verticalAlign=top;spacingLeft=4;spacingRight=4;whiteSpace=wrap;overflow=hidden;rotatable=0;points=[[0,0.5],[1,0.5]];portConstraint=eastwest;labelBackgroundColor=none;" parent="Ccfl4KgH0oGbk2hKrYcx-121" vertex="1">
          <mxGeometry y="52" width="180" height="26" as="geometry" />
        </mxCell>
        <mxCell id="Ccfl4KgH0oGbk2hKrYcx-129" value="- commentNotification" style="text;html=1;strokeColor=none;fillColor=none;align=left;verticalAlign=top;spacingLeft=4;spacingRight=4;whiteSpace=wrap;overflow=hidden;rotatable=0;points=[[0,0.5],[1,0.5]];portConstraint=eastwest;labelBackgroundColor=none;" parent="Ccfl4KgH0oGbk2hKrYcx-121" vertex="1">
          <mxGeometry y="78" width="180" height="26" as="geometry" />
        </mxCell>
        <mxCell id="Ccfl4KgH0oGbk2hKrYcx-130" value="- recomendationNotification" style="text;html=1;strokeColor=none;fillColor=none;align=left;verticalAlign=top;spacingLeft=4;spacingRight=4;whiteSpace=wrap;overflow=hidden;rotatable=0;points=[[0,0.5],[1,0.5]];portConstraint=eastwest;labelBackgroundColor=none;" parent="Ccfl4KgH0oGbk2hKrYcx-121" vertex="1">
          <mxGeometry y="104" width="180" height="26" as="geometry" />
        </mxCell>
        <mxCell id="Ccfl4KgH0oGbk2hKrYcx-132" value="" style="endArrow=block;endFill=1;html=1;edgeStyle=orthogonalEdgeStyle;align=left;verticalAlign=top;rounded=0;fontSize=12;startSize=8;endSize=8;entryX=0.25;entryY=1;entryDx=0;entryDy=0;labelBackgroundColor=none;fontColor=default;" parent="1" source="Ccfl4KgH0oGbk2hKrYcx-127" target="Ccfl4KgH0oGbk2hKrYcx-94" edge="1">
          <mxGeometry x="-1" relative="1" as="geometry">
            <mxPoint x="650" y="230" as="sourcePoint" />
            <mxPoint x="810" y="230" as="targetPoint" />
          </mxGeometry>
        </mxCell>
        <mxCell id="Ccfl4KgH0oGbk2hKrYcx-202" value="&lt;span style=&quot;font-size: 12px; background-color: rgb(251, 251, 251);&quot;&gt;User appeal&lt;/span&gt;" style="edgeLabel;html=1;align=center;verticalAlign=middle;resizable=0;points=[];" parent="Ccfl4KgH0oGbk2hKrYcx-132" vertex="1" connectable="0">
          <mxGeometry x="0.5665" y="3" relative="1" as="geometry">
            <mxPoint as="offset" />
          </mxGeometry>
        </mxCell>
        <mxCell id="Ccfl4KgH0oGbk2hKrYcx-136" value="" style="endArrow=block;endFill=1;html=1;edgeStyle=orthogonalEdgeStyle;align=left;verticalAlign=top;rounded=0;fontSize=12;startSize=8;endSize=8;entryX=0.75;entryY=0;entryDx=0;entryDy=0;exitX=-0.002;exitY=0.288;exitDx=0;exitDy=0;exitPerimeter=0;labelBackgroundColor=none;fontColor=default;" parent="1" source="Ccfl4KgH0oGbk2hKrYcx-96" target="Ccfl4KgH0oGbk2hKrYcx-121" edge="1">
          <mxGeometry x="-1" relative="1" as="geometry">
            <mxPoint x="670" y="140" as="sourcePoint" />
            <mxPoint x="1140" y="240" as="targetPoint" />
          </mxGeometry>
        </mxCell>
        <mxCell id="Ccfl4KgH0oGbk2hKrYcx-201" value="&lt;span style=&quot;font-size: 12px; background-color: rgb(251, 251, 251);&quot;&gt;Adam edit/delete&lt;/span&gt;" style="edgeLabel;html=1;align=center;verticalAlign=middle;resizable=0;points=[];" parent="Ccfl4KgH0oGbk2hKrYcx-136" vertex="1" connectable="0">
          <mxGeometry x="0.5245" y="2" relative="1" as="geometry">
            <mxPoint as="offset" />
          </mxGeometry>
        </mxCell>
        <mxCell id="Ccfl4KgH0oGbk2hKrYcx-139" value="" style="endArrow=block;endFill=1;html=1;edgeStyle=elbowEdgeStyle;align=left;verticalAlign=top;rounded=0;fontSize=12;startSize=8;endSize=8;entryX=0.75;entryY=0;entryDx=0;entryDy=0;elbow=vertical;labelBackgroundColor=none;fontColor=default;exitX=0.792;exitY=1.06;exitDx=0;exitDy=0;exitPerimeter=0;" parent="1" source="Ccfl4KgH0oGbk2hKrYcx-96" target="78961159f06e98e8-30" edge="1">
          <mxGeometry x="-1" relative="1" as="geometry">
            <mxPoint x="828" y="170" as="sourcePoint" />
            <mxPoint x="880" y="425" as="targetPoint" />
          </mxGeometry>
        </mxCell>
        <mxCell id="Ccfl4KgH0oGbk2hKrYcx-204" value="&lt;span style=&quot;font-size: 12px; background-color: rgb(251, 251, 251);&quot;&gt;Adam edit/delete&lt;/span&gt;" style="edgeLabel;html=1;align=center;verticalAlign=middle;resizable=0;points=[];" parent="Ccfl4KgH0oGbk2hKrYcx-139" vertex="1" connectable="0">
          <mxGeometry x="0.3849" y="1" relative="1" as="geometry">
            <mxPoint as="offset" />
          </mxGeometry>
        </mxCell>
        <mxCell id="Ccfl4KgH0oGbk2hKrYcx-143" value="Comment" style="swimlane;html=1;fontStyle=1;align=center;verticalAlign=top;childLayout=stackLayout;horizontal=1;startSize=26;horizontalStack=0;resizeParent=1;resizeLast=0;collapsible=1;marginBottom=0;swimlaneFillColor=#ffffff;rounded=0;shadow=0;comic=0;labelBackgroundColor=none;strokeWidth=1;fillColor=none;fontFamily=Verdana;fontSize=12" parent="1" vertex="1">
          <mxGeometry x="1030" y="550" width="210" height="258" as="geometry" />
        </mxCell>
        <mxCell id="Ccfl4KgH0oGbk2hKrYcx-144" value="- creator: Id" style="text;html=1;strokeColor=none;fillColor=none;align=left;verticalAlign=top;spacingLeft=4;spacingRight=4;whiteSpace=wrap;overflow=hidden;rotatable=0;points=[[0,0.5],[1,0.5]];portConstraint=eastwest;labelBackgroundColor=none;" parent="Ccfl4KgH0oGbk2hKrYcx-143" vertex="1">
          <mxGeometry y="26" width="210" height="26" as="geometry" />
        </mxCell>
        <mxCell id="Ccfl4KgH0oGbk2hKrYcx-145" value="- text: String" style="text;html=1;strokeColor=none;fillColor=none;align=left;verticalAlign=top;spacingLeft=4;spacingRight=4;whiteSpace=wrap;overflow=hidden;rotatable=0;points=[[0,0.5],[1,0.5]];portConstraint=eastwest;labelBackgroundColor=none;" parent="Ccfl4KgH0oGbk2hKrYcx-143" vertex="1">
          <mxGeometry y="52" width="210" height="26" as="geometry" />
        </mxCell>
        <mxCell id="Ccfl4KgH0oGbk2hKrYcx-146" value="- likeOrDislikeList: Map&amp;lt;id, boolen&amp;gt;" style="text;html=1;strokeColor=none;fillColor=none;align=left;verticalAlign=top;spacingLeft=4;spacingRight=4;whiteSpace=wrap;overflow=hidden;rotatable=0;points=[[0,0.5],[1,0.5]];portConstraint=eastwest;labelBackgroundColor=none;" parent="Ccfl4KgH0oGbk2hKrYcx-143" vertex="1">
          <mxGeometry y="78" width="210" height="26" as="geometry" />
        </mxCell>
        <mxCell id="Ccfl4KgH0oGbk2hKrYcx-147" value="- likeCount: int" style="text;html=1;strokeColor=none;fillColor=none;align=left;verticalAlign=top;spacingLeft=4;spacingRight=4;whiteSpace=wrap;overflow=hidden;rotatable=0;points=[[0,0.5],[1,0.5]];portConstraint=eastwest;labelBackgroundColor=none;" parent="Ccfl4KgH0oGbk2hKrYcx-143" vertex="1">
          <mxGeometry y="104" width="210" height="26" as="geometry" />
        </mxCell>
        <mxCell id="Ccfl4KgH0oGbk2hKrYcx-152" value="- dislikeCount: int" style="text;html=1;strokeColor=none;fillColor=none;align=left;verticalAlign=top;spacingLeft=4;spacingRight=4;whiteSpace=wrap;overflow=hidden;rotatable=0;points=[[0,0.5],[1,0.5]];portConstraint=eastwest;labelBackgroundColor=none;" parent="Ccfl4KgH0oGbk2hKrYcx-143" vertex="1">
          <mxGeometry y="130" width="210" height="26" as="geometry" />
        </mxCell>
        <mxCell id="Ccfl4KgH0oGbk2hKrYcx-148" value="" style="line;html=1;strokeWidth=1;fillColor=none;align=left;verticalAlign=middle;spacingTop=-1;spacingLeft=3;spacingRight=3;rotatable=0;labelPosition=right;points=[];portConstraint=eastwest;labelBackgroundColor=none;" parent="Ccfl4KgH0oGbk2hKrYcx-143" vertex="1">
          <mxGeometry y="156" width="210" height="24" as="geometry" />
        </mxCell>
        <mxCell id="Ccfl4KgH0oGbk2hKrYcx-150" value="+ get&amp;lt;Attribute&amp;gt;()" style="text;html=1;strokeColor=none;fillColor=none;align=left;verticalAlign=top;spacingLeft=4;spacingRight=4;whiteSpace=wrap;overflow=hidden;rotatable=0;points=[[0,0.5],[1,0.5]];portConstraint=eastwest;labelBackgroundColor=none;" parent="Ccfl4KgH0oGbk2hKrYcx-143" vertex="1">
          <mxGeometry y="180" width="210" height="26" as="geometry" />
        </mxCell>
        <mxCell id="Ccfl4KgH0oGbk2hKrYcx-153" value="+ set&amp;lt;Attribute&amp;gt;()" style="text;html=1;strokeColor=none;fillColor=none;align=left;verticalAlign=top;spacingLeft=4;spacingRight=4;whiteSpace=wrap;overflow=hidden;rotatable=0;points=[[0,0.5],[1,0.5]];portConstraint=eastwest;labelBackgroundColor=none;" parent="Ccfl4KgH0oGbk2hKrYcx-143" vertex="1">
          <mxGeometry y="206" width="210" height="26" as="geometry" />
        </mxCell>
        <mxCell id="Ccfl4KgH0oGbk2hKrYcx-165" value="+ report()" style="text;html=1;strokeColor=none;fillColor=none;align=left;verticalAlign=top;spacingLeft=4;spacingRight=4;whiteSpace=wrap;overflow=hidden;rotatable=0;points=[[0,0.5],[1,0.5]];portConstraint=eastwest;labelBackgroundColor=none;" parent="Ccfl4KgH0oGbk2hKrYcx-143" vertex="1">
          <mxGeometry y="232" width="210" height="26" as="geometry" />
        </mxCell>
        <mxCell id="Ccfl4KgH0oGbk2hKrYcx-158" value="" style="endArrow=block;endFill=1;html=1;edgeStyle=elbowEdgeStyle;align=left;verticalAlign=top;rounded=0;fontSize=12;startSize=8;endSize=8;startArrow=diamond;startFill=0;entryX=0;entryY=0.5;entryDx=0;entryDy=0;labelBackgroundColor=none;fontColor=default;" parent="1" source="78961159f06e98e8-34" target="Ccfl4KgH0oGbk2hKrYcx-21" edge="1">
          <mxGeometry x="-1" relative="1" as="geometry">
            <mxPoint x="940" y="490" as="sourcePoint" />
            <mxPoint x="1100" y="490" as="targetPoint" />
            <Array as="points">
              <mxPoint x="930" y="430" />
            </Array>
          </mxGeometry>
        </mxCell>
        <mxCell id="Ccfl4KgH0oGbk2hKrYcx-160" value="" style="endArrow=block;endFill=1;html=1;edgeStyle=orthogonalEdgeStyle;align=left;verticalAlign=top;rounded=0;fontSize=12;startSize=8;endSize=8;startArrow=diamond;startFill=0;entryX=0;entryY=0.5;entryDx=0;entryDy=0;labelBackgroundColor=none;fontColor=default;" parent="1" source="Ccfl4KgH0oGbk2hKrYcx-34" target="Ccfl4KgH0oGbk2hKrYcx-21" edge="1">
          <mxGeometry x="-1" relative="1" as="geometry">
            <mxPoint x="1110" y="920" as="sourcePoint" />
            <mxPoint x="1580" y="939" as="targetPoint" />
          </mxGeometry>
        </mxCell>
        <mxCell id="Ccfl4KgH0oGbk2hKrYcx-162" value="" style="endArrow=block;endFill=1;html=1;edgeStyle=elbowEdgeStyle;align=left;verticalAlign=top;rounded=0;fontSize=12;startSize=8;endSize=8;labelBackgroundColor=none;fontColor=default;" parent="1" source="Ccfl4KgH0oGbk2hKrYcx-161" target="Ccfl4KgH0oGbk2hKrYcx-143" edge="1">
          <mxGeometry x="-1" relative="1" as="geometry">
            <mxPoint x="1040" y="850" as="sourcePoint" />
            <mxPoint x="1020" y="790" as="targetPoint" />
          </mxGeometry>
        </mxCell>
        <mxCell id="Ccfl4KgH0oGbk2hKrYcx-163" value="1" style="edgeLabel;resizable=0;html=1;align=left;verticalAlign=bottom;labelBackgroundColor=none;" parent="Ccfl4KgH0oGbk2hKrYcx-162" connectable="0" vertex="1">
          <mxGeometry x="-1" relative="1" as="geometry">
            <mxPoint x="3" y="-1" as="offset" />
          </mxGeometry>
        </mxCell>
        <mxCell id="Ccfl4KgH0oGbk2hKrYcx-164" value="0..*" style="edgeLabel;resizable=0;html=1;align=left;verticalAlign=bottom;labelBackgroundColor=none;" parent="1" connectable="0" vertex="1">
          <mxGeometry x="1000" y="679" as="geometry" />
        </mxCell>
        <mxCell id="Ccfl4KgH0oGbk2hKrYcx-166" value="" style="endArrow=block;endFill=1;html=1;edgeStyle=orthogonalEdgeStyle;align=left;verticalAlign=top;rounded=0;fontSize=12;startSize=8;endSize=8;entryX=1;entryY=0.5;entryDx=0;entryDy=0;labelBackgroundColor=none;fontColor=default;" parent="1" source="78961159f06e98e8-42" target="Ccfl4KgH0oGbk2hKrYcx-95" edge="1">
          <mxGeometry x="-1" relative="1" as="geometry">
            <mxPoint x="695" y="950" as="sourcePoint" />
            <mxPoint x="900" y="1090" as="targetPoint" />
            <Array as="points">
              <mxPoint x="920" y="705" />
              <mxPoint x="920" y="850" />
              <mxPoint x="1480" y="850" />
              <mxPoint x="1480" y="119" />
            </Array>
          </mxGeometry>
        </mxCell>
        <mxCell id="Ccfl4KgH0oGbk2hKrYcx-171" value="" style="endArrow=block;endFill=1;html=1;edgeStyle=orthogonalEdgeStyle;align=left;verticalAlign=top;rounded=0;fontSize=12;startSize=8;endSize=8;entryX=1;entryY=0.5;entryDx=0;entryDy=0;labelBackgroundColor=none;fontColor=default;" parent="1" source="Ccfl4KgH0oGbk2hKrYcx-165" target="Ccfl4KgH0oGbk2hKrYcx-95" edge="1">
          <mxGeometry x="-1" relative="1" as="geometry">
            <mxPoint x="1390" y="710" as="sourcePoint" />
            <mxPoint x="1550" y="710" as="targetPoint" />
            <Array as="points">
              <mxPoint x="1135" y="850" />
              <mxPoint x="1480" y="850" />
              <mxPoint x="1480" y="119" />
            </Array>
          </mxGeometry>
        </mxCell>
        <mxCell id="Ccfl4KgH0oGbk2hKrYcx-177" value="Message" style="swimlane;html=1;fontStyle=1;align=center;verticalAlign=top;childLayout=stackLayout;horizontal=1;startSize=26;horizontalStack=0;resizeParent=1;resizeLast=0;collapsible=1;marginBottom=0;swimlaneFillColor=#ffffff;rounded=0;shadow=0;comic=0;labelBackgroundColor=none;strokeWidth=1;fillColor=none;fontFamily=Verdana;fontSize=12" parent="1" vertex="1">
          <mxGeometry x="-215" y="214" width="180" height="180" as="geometry" />
        </mxCell>
        <mxCell id="Ccfl4KgH0oGbk2hKrYcx-178" value="- sender: Id" style="text;html=1;strokeColor=none;fillColor=none;align=left;verticalAlign=top;spacingLeft=4;spacingRight=4;whiteSpace=wrap;overflow=hidden;rotatable=0;points=[[0,0.5],[1,0.5]];portConstraint=eastwest;labelBackgroundColor=none;" parent="Ccfl4KgH0oGbk2hKrYcx-177" vertex="1">
          <mxGeometry y="26" width="180" height="26" as="geometry" />
        </mxCell>
        <mxCell id="Ccfl4KgH0oGbk2hKrYcx-179" value="- receiver: Id" style="text;html=1;strokeColor=none;fillColor=none;align=left;verticalAlign=top;spacingLeft=4;spacingRight=4;whiteSpace=wrap;overflow=hidden;rotatable=0;points=[[0,0.5],[1,0.5]];portConstraint=eastwest;labelBackgroundColor=none;" parent="Ccfl4KgH0oGbk2hKrYcx-177" vertex="1">
          <mxGeometry y="52" width="180" height="26" as="geometry" />
        </mxCell>
        <mxCell id="Ccfl4KgH0oGbk2hKrYcx-186" value="- text: String" style="text;html=1;strokeColor=none;fillColor=none;align=left;verticalAlign=top;spacingLeft=4;spacingRight=4;whiteSpace=wrap;overflow=hidden;rotatable=0;points=[[0,0.5],[1,0.5]];portConstraint=eastwest;labelBackgroundColor=none;" parent="Ccfl4KgH0oGbk2hKrYcx-177" vertex="1">
          <mxGeometry y="78" width="180" height="26" as="geometry" />
        </mxCell>
        <mxCell id="Ccfl4KgH0oGbk2hKrYcx-188" value="" style="line;html=1;strokeWidth=1;fillColor=none;align=left;verticalAlign=middle;spacingTop=-1;spacingLeft=3;spacingRight=3;rotatable=0;labelPosition=right;points=[];portConstraint=eastwest;labelBackgroundColor=none;" parent="Ccfl4KgH0oGbk2hKrYcx-177" vertex="1">
          <mxGeometry y="104" width="180" height="24" as="geometry" />
        </mxCell>
        <mxCell id="Ccfl4KgH0oGbk2hKrYcx-189" value="+ get&amp;lt;Attribute&amp;gt;()" style="text;html=1;strokeColor=none;fillColor=none;align=left;verticalAlign=top;spacingLeft=4;spacingRight=4;whiteSpace=wrap;overflow=hidden;rotatable=0;points=[[0,0.5],[1,0.5]];portConstraint=eastwest;labelBackgroundColor=none;" parent="Ccfl4KgH0oGbk2hKrYcx-177" vertex="1">
          <mxGeometry y="128" width="180" height="26" as="geometry" />
        </mxCell>
        <mxCell id="Ccfl4KgH0oGbk2hKrYcx-190" value="+ set&amp;lt;Attribute&amp;gt;()" style="text;html=1;strokeColor=none;fillColor=none;align=left;verticalAlign=top;spacingLeft=4;spacingRight=4;whiteSpace=wrap;overflow=hidden;rotatable=0;points=[[0,0.5],[1,0.5]];portConstraint=eastwest;labelBackgroundColor=none;" parent="Ccfl4KgH0oGbk2hKrYcx-177" vertex="1">
          <mxGeometry y="154" width="180" height="26" as="geometry" />
        </mxCell>
        <mxCell id="Ccfl4KgH0oGbk2hKrYcx-184" value="" style="endArrow=none;endFill=0;html=1;edgeStyle=elbowEdgeStyle;align=left;verticalAlign=top;rounded=0;fontSize=12;startSize=8;endSize=8;startArrow=classic;startFill=1;entryX=0;entryY=0.035;entryDx=0;entryDy=0;entryPerimeter=0;elbow=vertical;labelBackgroundColor=none;fontColor=default;exitX=0.5;exitY=0;exitDx=0;exitDy=0;" parent="1" source="Ccfl4KgH0oGbk2hKrYcx-205" target="78961159f06e98e8-17" edge="1">
          <mxGeometry x="-1" relative="1" as="geometry">
            <mxPoint x="-90" y="-10" as="sourcePoint" />
            <mxPoint y="-90" as="targetPoint" />
            <Array as="points">
              <mxPoint x="-30" y="30" />
            </Array>
          </mxGeometry>
        </mxCell>
        <mxCell id="Ccfl4KgH0oGbk2hKrYcx-192" value="" style="endArrow=block;endFill=1;html=1;edgeStyle=orthogonalEdgeStyle;align=left;verticalAlign=top;rounded=0;fontColor=default;labelBackgroundColor=none;entryX=1;entryY=0.5;entryDx=0;entryDy=0;" parent="1" source="Ccfl4KgH0oGbk2hKrYcx-40" target="Ccfl4KgH0oGbk2hKrYcx-95" edge="1">
          <mxGeometry x="-1" relative="1" as="geometry">
            <mxPoint x="1280" y="720" as="sourcePoint" />
            <mxPoint x="1470" y="630" as="targetPoint" />
            <Array as="points">
              <mxPoint x="1110" y="520" />
              <mxPoint x="1480" y="520" />
              <mxPoint x="1480" y="119" />
            </Array>
          </mxGeometry>
        </mxCell>
        <mxCell id="Ccfl4KgH0oGbk2hKrYcx-205" value="Conversation" style="swimlane;html=1;fontStyle=1;align=center;verticalAlign=top;childLayout=stackLayout;horizontal=1;startSize=26;horizontalStack=0;resizeParent=1;resizeLast=0;collapsible=1;marginBottom=0;swimlaneFillColor=#ffffff;rounded=0;shadow=0;comic=0;labelBackgroundColor=none;strokeWidth=1;fillColor=none;fontFamily=Verdana;fontSize=12" parent="1" vertex="1">
          <mxGeometry x="-230" y="56" width="210" height="128" as="geometry" />
        </mxCell>
        <mxCell id="Ccfl4KgH0oGbk2hKrYcx-207" value="- receiver: Id" style="text;html=1;strokeColor=none;fillColor=none;align=left;verticalAlign=top;spacingLeft=4;spacingRight=4;whiteSpace=wrap;overflow=hidden;rotatable=0;points=[[0,0.5],[1,0.5]];portConstraint=eastwest;labelBackgroundColor=none;" parent="Ccfl4KgH0oGbk2hKrYcx-205" vertex="1">
          <mxGeometry y="26" width="210" height="26" as="geometry" />
        </mxCell>
        <mxCell id="Ccfl4KgH0oGbk2hKrYcx-208" value="- messageList: ArrayList&amp;lt;Message&amp;gt;" style="text;html=1;strokeColor=none;fillColor=none;align=left;verticalAlign=top;spacingLeft=4;spacingRight=4;whiteSpace=wrap;overflow=hidden;rotatable=0;points=[[0,0.5],[1,0.5]];portConstraint=eastwest;labelBackgroundColor=none;" parent="Ccfl4KgH0oGbk2hKrYcx-205" vertex="1">
          <mxGeometry y="52" width="210" height="26" as="geometry" />
        </mxCell>
        <mxCell id="Ccfl4KgH0oGbk2hKrYcx-209" value="" style="line;html=1;strokeWidth=1;fillColor=none;align=left;verticalAlign=middle;spacingTop=-1;spacingLeft=3;spacingRight=3;rotatable=0;labelPosition=right;points=[];portConstraint=eastwest;labelBackgroundColor=none;" parent="Ccfl4KgH0oGbk2hKrYcx-205" vertex="1">
          <mxGeometry y="78" width="210" height="24" as="geometry" />
        </mxCell>
        <mxCell id="Ccfl4KgH0oGbk2hKrYcx-210" value="+ sendMesage()" style="text;html=1;strokeColor=none;fillColor=none;align=left;verticalAlign=top;spacingLeft=4;spacingRight=4;whiteSpace=wrap;overflow=hidden;rotatable=0;points=[[0,0.5],[1,0.5]];portConstraint=eastwest;labelBackgroundColor=none;" parent="Ccfl4KgH0oGbk2hKrYcx-205" vertex="1">
          <mxGeometry y="102" width="210" height="26" as="geometry" />
        </mxCell>
        <mxCell id="Ccfl4KgH0oGbk2hKrYcx-214" value="" style="endArrow=block;endFill=1;html=1;edgeStyle=orthogonalEdgeStyle;align=left;verticalAlign=top;rounded=0;" parent="1" source="Ccfl4KgH0oGbk2hKrYcx-205" target="Ccfl4KgH0oGbk2hKrYcx-177" edge="1">
          <mxGeometry x="-1" relative="1" as="geometry">
            <mxPoint x="-540" y="310" as="sourcePoint" />
            <mxPoint x="-380" y="310" as="targetPoint" />
          </mxGeometry>
        </mxCell>
      </root>
    </mxGraphModel>
  </diagram>
</mxfile>
